<svg width="24" height="27" viewBox="0 0 24 27" fill="none" xmlns="http://www.w3.org/2000/svg">
<path d="M4.52204 4.80005H19.4779C20.8889 4.80005 21.6 5.50805 21.6 6.94805V17.052C21.6 18.48 20.8889 19.2 19.4779 19.2H4.52204C3.1111 19.2 2.39999 18.48 2.39999 17.052V6.94805C2.39999 5.50805 3.1111 4.80005 4.52204 4.80005ZM11.9944 15.12L19.6021 8.48405C19.873 8.24405 20.0875 7.69205 19.7488 7.20005C19.4215 6.70805 18.8233 6.69605 18.4282 6.99605L11.9944 11.628L5.57178 6.99605C5.17671 6.69605 4.57848 6.70805 4.25114 7.20005C3.91252 7.69205 4.12698 8.24405 4.39788 8.48405L11.9944 15.12Z" fill="white"/>
</svg>
