<svg width="80" height="80" viewBox="0 0 80 80" fill="none" xmlns="http://www.w3.org/2000/svg">
<rect width="80" height="80" rx="40" fill="#F7FBFA"/>
<g clip-path="url(#clip0_1_106)">
<g filter="url(#filter0_d_1_106)">
<path fill-rule="evenodd" clip-rule="evenodd" d="M44.408 26.427C42.9305 26.6518 41.4605 26.9229 40 27.24C38.5395 26.9229 37.0695 26.6518 35.592 26.427C36.837 26.917 38.102 27.504 39.437 28.149C39.6057 28.2307 39.748 28.3583 39.8476 28.5171C39.9471 28.6759 40 28.8596 40 29.047C40 28.664 40.218 28.315 40.563 28.149C41.898 27.504 43.163 26.916 44.408 26.427ZM40 51.401C40 51.979 39.527 52.401 39 52.408V52.605C32.731 51.544 28.302 51.477 22 52.583V29.033C22.6639 28.881 23.3307 28.742 24 28.616V26.583C22.974 26.767 21.9 26.995 20.757 27.271C20.5408 27.3235 20.3486 27.4473 20.2113 27.6223C20.074 27.7974 19.9995 28.0135 20 28.236V53.775C20 54.408 20.583 54.88 21.204 54.762C28.28 53.412 32.729 53.492 39.808 54.777C39.9349 54.8003 40.0651 54.8003 40.192 54.777C47.271 53.492 51.72 53.412 58.796 54.762C58.9419 54.7902 59.0923 54.7859 59.2363 54.7495C59.3804 54.713 59.5147 54.6452 59.6296 54.551C59.7445 54.4568 59.8373 54.3384 59.9013 54.2043C59.9653 54.0702 59.999 53.9236 60 53.775V28.237C60.0007 28.0144 59.9264 27.798 59.789 27.6227C59.6517 27.4475 59.4594 27.3236 59.243 27.271C58.1691 27.0096 57.0876 26.7802 56 26.583V28.616C56.644 28.736 57.308 28.876 58 29.033V52.583C51.698 51.477 47.269 51.543 41 52.605V52.408C40.473 52.4 40 51.978 40 51.401Z" fill="#5E8B7E"/>
<path fill-rule="evenodd" clip-rule="evenodd" d="M25 26.507V49.055C25.0017 49.0582 25.0041 49.0609 25.007 49.063C25.0143 49.0689 25.0229 49.0732 25.032 49.0754C25.0412 49.0777 25.0508 49.0779 25.06 49.076C30.4 48.096 34.413 49.296 38.975 51.406C38.9776 51.407 38.9803 51.4077 38.983 51.408H38.985C38.9893 51.4076 38.9934 51.4063 38.997 51.404C38.9981 51.4034 38.9991 51.4028 39 51.402V29.048C34.02 26.644 30.266 25.168 25 26.507ZM24.474 24.577C30.493 23.036 34.821 24.809 39.872 27.248C40.2102 27.4116 40.4955 27.6673 40.695 27.9857C40.8946 28.3041 41.0003 28.6723 41 29.048V51.4C41 52.887 39.453 53.828 38.136 53.22C33.756 51.195 30.186 50.168 25.421 51.043C24.211 51.266 23 50.364 23 49.055V26.492C23 25.612 23.583 24.805 24.474 24.577Z" fill="#5E8B7E"/>
<path fill-rule="evenodd" clip-rule="evenodd" d="M55 26.507V49.055C54.9981 49.0584 54.9954 49.0612 54.992 49.063C54.9848 49.0688 54.9764 49.073 54.9674 49.0752C54.9584 49.0774 54.9491 49.0777 54.94 49.076C49.6 48.096 45.588 49.296 41.025 51.406C41.0224 51.407 41.0197 51.4077 41.017 51.408H41.015C41.0107 51.4076 41.0066 51.4063 41.003 51.404L41 51.4V29.047C45.98 26.643 49.734 25.167 55 26.507ZM55.526 24.577C49.507 23.036 45.179 24.809 40.128 27.248C39.7899 27.4118 39.5048 27.6675 39.3053 27.9859C39.1058 28.3042 39 28.6723 39 29.048V51.402C39 52.889 40.547 53.83 41.864 53.221C46.244 51.196 49.814 50.169 54.579 51.044C55.789 51.266 57 50.365 57 49.055V26.492C57.0019 26.0544 56.858 25.6287 56.5911 25.2819C56.3242 24.9352 55.9495 24.6872 55.526 24.577ZM27.01 45.003C30.68 44.965 32.727 45.335 36.622 46.926L37.378 45.074C33.251 43.389 30.94 42.962 26.99 43.003L27.01 45.003ZM27.01 41.003C30.68 40.965 32.727 41.335 36.622 42.926L37.378 41.074C33.251 39.389 30.94 38.962 26.99 39.003L27.01 41.003ZM27.01 37.003C30.68 36.965 32.727 37.335 36.622 38.926L37.378 37.074C33.251 35.389 30.94 34.962 26.99 35.003L27.01 37.003ZM29.5 29V32H27.5V29H29.5ZM33 30V33H31V30H33ZM36.5 31V34H34.5V31H36.5Z" fill="#5E8B7E"/>
<path fill-rule="evenodd" clip-rule="evenodd" d="M52.99 45.003C49.32 44.965 47.273 45.335 43.378 46.926L42.622 45.074C46.749 43.389 49.06 42.962 53.01 43.003L52.99 45.003ZM52.99 41.003C49.32 40.965 47.273 41.335 43.378 42.926L42.622 41.074C46.749 39.389 49.06 38.962 53.01 39.003L52.99 41.003ZM52.99 37.003C49.32 36.965 47.273 37.335 43.378 38.926L42.622 37.074C46.749 35.389 49.06 34.962 53.01 35.003L52.99 37.003ZM50.5 29V32H52.5V29H50.5ZM47 30V33H49V30H47ZM43.5 31V34H45.5V31H43.5Z" fill="#5E8B7E"/>
</g>
</g>
<defs>
<filter id="filter0_d_1_106" x="16" y="24.0005" width="50" height="40.7939" filterUnits="userSpaceOnUse" color-interpolation-filters="sRGB">
<feFlood flood-opacity="0" result="BackgroundImageFix"/>
<feColorMatrix in="SourceAlpha" type="matrix" values="0 0 0 0 0 0 0 0 0 0 0 0 0 0 0 0 0 0 127 0" result="hardAlpha"/>
<feOffset dx="1" dy="5"/>
<feGaussianBlur stdDeviation="2.5"/>
<feComposite in2="hardAlpha" operator="out"/>
<feColorMatrix type="matrix" values="0 0 0 0 0.368627 0 0 0 0 0.545098 0 0 0 0 0.494118 0 0 0 0.2 0"/>
<feBlend mode="normal" in2="BackgroundImageFix" result="effect1_dropShadow_1_106"/>
<feBlend mode="normal" in="SourceGraphic" in2="effect1_dropShadow_1_106" result="shape"/>
</filter>
<clipPath id="clip0_1_106">
<rect width="48" height="48" fill="white" transform="translate(16 16)"/>
</clipPath>
</defs>
</svg>
