<svg width="80" height="80" viewBox="0 0 80 80" fill="none" xmlns="http://www.w3.org/2000/svg">
<rect width="80" height="80" rx="40" fill="#F7FBFA"/>
<g clip-path="url(#clip0_1_116)">
<g filter="url(#filter0_d_1_116)">
<path d="M40.0916 18.0995C38.5166 18.0995 37.0457 18.8167 35.7919 19.9911C34.5382 21.1658 33.465 22.8017 32.5703 24.7833C32.3828 25.1985 32.2038 25.6299 32.0326 26.0749C31.5709 26.0016 31.1073 25.9414 30.6423 25.8944C30.1013 25.8405 29.5735 25.807 29.0607 25.795C27.5213 25.7584 26.1144 25.9145 24.8813 26.2883C23.2373 26.7868 21.8808 27.7023 21.0933 29.0661C20.3058 30.4302 20.1914 32.0627 20.5817 33.7358C20.9721 35.4088 21.8522 37.1562 23.1211 38.9219C23.3873 39.2922 23.6718 39.6636 23.9719 40.035C23.6783 40.3975 23.3949 40.7683 23.1222 41.1468C21.8532 42.9124 20.9732 44.6598 20.5828 46.3329C20.1924 48.006 20.3069 49.6385 21.0944 51.0023C21.8819 52.3664 23.2384 53.2818 24.8824 53.7801C26.5265 54.2787 28.4799 54.3901 30.6434 54.174C31.0969 54.1287 31.5603 54.0681 32.0316 53.9939C32.1989 54.4302 32.3786 54.8617 32.5703 55.2878C33.465 57.2697 34.5381 58.9053 35.7919 60.0799C37.0456 61.2544 38.5167 61.9718 40.0916 61.9718C41.6664 61.9718 43.1375 61.2544 44.3913 60.0799C45.6449 58.9052 46.7181 57.2696 47.6128 55.2878C47.8045 54.8617 47.9842 54.4303 48.1515 53.994C48.6223 54.0681 49.0852 54.1288 49.5384 54.174C51.702 54.39 53.6554 54.2786 55.2994 53.7801C56.9435 53.2817 58.3001 52.3662 59.0876 51.0023C59.8751 49.6382 59.9895 48.0059 59.5992 46.3329C59.2087 44.6599 58.3286 42.9125 57.0598 41.1468C56.787 40.7683 56.5036 40.3975 56.2099 40.035C56.5041 39.6721 56.7878 39.301 57.0608 38.922C58.3297 37.1563 59.2098 35.4089 59.6001 33.7359C59.9905 32.0628 59.876 30.4303 59.0885 29.0662C58.301 27.7024 56.9445 26.7869 55.3005 26.2884C54.0675 25.9146 52.6605 25.7585 51.1213 25.795C50.6081 25.807 50.0802 25.8405 49.5394 25.8944C49.0856 25.9397 48.6218 26.0006 48.1503 26.0748C47.9831 25.6394 47.8038 25.2087 47.6124 24.7833C46.7178 22.8015 45.6446 21.1655 44.3909 19.991C43.1372 18.8165 41.666 18.0994 40.0912 18.0994L40.0916 18.0995ZM40.0916 19.8514C41.1421 19.8514 42.1721 20.313 43.1934 21.2699C44.2146 22.2266 45.19 23.6748 46.0159 25.5043C46.1503 25.8028 46.278 26.1042 46.399 26.4083C44.3912 26.8547 42.2646 27.5397 40.091 28.4549C37.9179 27.5399 35.7917 26.8551 33.7842 26.4087C33.9081 26.0984 34.0354 25.7959 34.1673 25.5042C34.9932 23.6746 35.9686 22.2264 36.9899 21.2695C38.0112 20.3128 39.0411 19.8512 40.0918 19.8512L40.0916 19.8514ZM28.505 27.5443C28.6742 27.5426 28.846 27.5437 29.0205 27.5476C29.4855 27.558 29.9689 27.588 30.4683 27.6379C30.7876 27.6698 31.1139 27.7106 31.4455 27.7587C30.8281 29.7206 30.358 31.9045 30.0634 34.2443C28.1839 35.6693 26.5274 37.1687 25.1369 38.6846C24.9334 38.4272 24.7356 38.1653 24.5437 37.8991C23.3723 36.2692 22.6059 34.7004 22.2878 33.3375C21.9698 31.9745 22.0853 30.8519 22.6105 29.9421C23.1357 29.0324 24.0505 28.3711 25.3896 27.9651C26.2685 27.6986 27.3209 27.555 28.5049 27.5442L28.505 27.5443ZM51.677 27.5443C52.8611 27.555 53.9134 27.6987 54.7924 27.9652C56.1317 28.3711 57.0461 29.0324 57.5714 29.9421C58.0966 30.8519 58.2122 31.9746 57.8942 33.3375C57.5764 34.7003 56.8095 36.2692 55.6383 37.8991C55.4464 38.1653 55.2487 38.4273 55.0453 38.6848C53.655 37.1691 51.9989 35.67 50.1199 34.2452C49.8256 31.905 49.3549 29.7209 48.7375 27.7587C49.0687 27.7106 49.3947 27.6696 49.7137 27.6379C50.195 27.5892 50.678 27.559 51.1616 27.5476C51.3334 27.5436 51.5052 27.5425 51.677 27.5441V27.5443ZM46.997 28.073C47.463 29.5203 47.8488 31.1173 48.1367 32.8261C47.2066 32.1979 46.2545 31.6026 45.2824 31.0416C44.3109 30.4805 43.32 29.9538 42.3114 29.4626C43.9352 28.8574 45.5108 28.3932 46.997 28.0732V28.073ZM33.1861 28.0733C34.672 28.3934 36.2475 28.8576 37.8708 29.4627C36.8622 29.9539 35.8713 30.4805 34.8998 31.0416C33.9281 31.6024 32.9764 32.1973 32.0466 32.8251C32.3344 31.1167 32.7201 29.5201 33.1861 28.0732V28.0733ZM40.091 30.3664C41.5167 30.9953 42.9638 31.7262 44.4064 32.559C45.8494 33.3923 47.2067 34.2803 48.4643 35.2009C48.6327 36.7503 48.7233 38.3695 48.7233 40.0356C48.7233 41.7008 48.633 43.3193 48.4647 44.868C47.207 45.7885 45.85 46.6763 44.4074 47.5094C42.9646 48.3423 41.5171 49.0735 40.0911 49.7024C38.665 49.0735 37.2175 48.3423 35.7747 47.5094C34.3324 46.6766 32.9759 45.789 31.7187 44.869C31.5504 43.32 31.4599 41.7012 31.4599 40.0355C31.4599 38.3691 31.5504 36.7498 31.7189 35.2002C32.9764 34.2798 34.3331 33.3919 35.7757 32.559C37.2184 31.7263 38.6655 30.9953 40.091 30.3666V30.3664ZM40.2095 33.0023L35.1937 36.0976L40.2095 39.1933L45.2254 36.0976L40.2095 33.0022V33.0023ZM29.8258 36.6711C29.747 37.7908 29.7077 38.9129 29.7079 40.0353C29.7079 41.1789 29.7483 42.3015 29.8259 43.3976C28.4899 42.2941 27.3 41.1616 26.2796 40.0345C27.3 38.9074 28.4899 37.7747 29.8259 36.6711H29.8258ZM50.3575 36.672C51.6928 37.7755 52.8825 38.9077 53.9025 40.0346C52.8825 41.1615 51.6928 42.2937 50.3575 43.3968C50.4363 42.2781 50.4755 41.1569 50.4753 40.0354C50.4753 38.8913 50.4349 37.7685 50.3574 36.672H50.3575ZM34.0638 37.459V43.5713L39.3316 46.8223V40.7102L34.0638 37.459ZM46.3504 37.4622L41.0839 40.7125V46.8216L46.3505 43.5713V37.4622H46.3504ZM25.1367 41.3847C26.5274 42.9006 28.1838 44.3997 30.0631 45.8247C30.3574 48.1642 30.8277 50.3479 31.4449 52.3098C31.114 52.3576 30.7881 52.3986 30.4694 52.4305C28.4721 52.6299 26.73 52.5092 25.3908 52.1033C24.0514 51.6974 23.137 51.0359 22.6117 50.1261C22.0865 49.2163 21.9709 48.0936 22.2889 46.7308C22.6069 45.3679 23.3734 43.799 24.5449 42.1691C24.7363 41.9033 24.9337 41.6417 25.1368 41.3847H25.1367ZM55.0452 41.385C55.2521 41.6475 55.4502 41.909 55.637 42.1691C56.8084 43.7989 57.5749 45.3678 57.8929 46.7307C58.2109 48.0935 58.0955 49.2162 57.5704 50.126C57.045 51.0358 56.1304 51.6973 54.791 52.1032C53.4519 52.5091 51.71 52.6298 49.7128 52.4304C49.3871 52.3973 49.0622 52.3572 48.7383 52.3099C49.3556 50.3475 49.8258 48.1634 50.1201 45.8234C51.9989 44.3987 53.6551 42.9 55.0453 41.3848L55.0452 41.385ZM48.137 47.2427C47.8492 48.9514 47.4635 50.5484 46.9976 51.9956C45.5113 51.6756 43.9354 51.2111 42.3116 50.606C43.3205 50.1146 44.3117 49.5878 45.2835 49.0265C46.2554 48.4656 47.2072 47.8707 48.1372 47.2427H48.137ZM32.0463 47.2437C32.9757 47.8713 33.9271 48.466 34.8985 49.0265C35.8703 49.5877 36.8615 50.1146 37.8704 50.606C36.247 51.211 34.6716 51.6754 33.1854 51.9954C32.7195 50.5485 32.3342 48.9519 32.0464 47.2437H32.0463ZM40.1434 47.3234L40.2072 47.3627L40.2707 47.3234H40.1435H40.1434ZM40.0909 51.614C42.265 52.529 44.3916 53.2139 46.3998 53.6602C46.2785 53.9652 46.1506 54.2675 46.0159 54.5668C45.19 56.3961 44.2146 57.8443 43.1933 58.8012C42.1721 59.758 41.1421 60.2196 40.0916 60.2196C39.041 60.2196 38.011 59.758 36.9898 58.8012C35.9686 57.8444 34.9932 56.3961 34.1673 54.5667C34.0327 54.2673 33.9047 53.9651 33.7834 53.6601C35.7911 53.2137 37.9175 52.5289 40.0911 51.614H40.0909Z" fill="#5E8B7E"/>
</g>
</g>
<defs>
<filter id="filter0_d_1_116" x="16.3642" y="18.0994" width="49.4535" height="53.8724" filterUnits="userSpaceOnUse" color-interpolation-filters="sRGB">
<feFlood flood-opacity="0" result="BackgroundImageFix"/>
<feColorMatrix in="SourceAlpha" type="matrix" values="0 0 0 0 0 0 0 0 0 0 0 0 0 0 0 0 0 0 127 0" result="hardAlpha"/>
<feOffset dx="1" dy="5"/>
<feGaussianBlur stdDeviation="2.5"/>
<feComposite in2="hardAlpha" operator="out"/>
<feColorMatrix type="matrix" values="0 0 0 0 0.368627 0 0 0 0 0.545098 0 0 0 0 0.494118 0 0 0 0.2 0"/>
<feBlend mode="normal" in2="BackgroundImageFix" result="effect1_dropShadow_1_116"/>
<feBlend mode="normal" in="SourceGraphic" in2="effect1_dropShadow_1_116" result="shape"/>
</filter>
<clipPath id="clip0_1_116">
<rect width="48" height="48" fill="white" transform="translate(16 16)"/>
</clipPath>
</defs>
</svg>
