<svg width="80" height="80" viewBox="0 0 80 80" fill="none" xmlns="http://www.w3.org/2000/svg">
<rect width="80" height="80" rx="40" fill="#F7FBFA"/>
<g clip-path="url(#clip0_1_6)">
<g filter="url(#filter0_d_1_6)">
<path d="M58 36H54V24H56V20H24V24H26V36H22C21.4696 36 20.9609 36.2107 20.5858 36.5858C20.2107 36.9609 20 37.4696 20 38V56H60V38C60 37.4696 59.7893 36.9609 59.4142 36.5858C59.0391 36.2107 58.5304 36 58 36ZM44 52V44H36V52H30V24H50V52H44Z" fill="#5E8B7E"/>
</g>
<path d="M34 28H38V32H34V28ZM42 28H46V32H42V28ZM34 36H38V40H34V36ZM42 36H46V40H42V36Z" fill="#5E8B7E"/>
</g>
<defs>
<filter id="filter0_d_1_6" x="16" y="20" width="50" height="46" filterUnits="userSpaceOnUse" color-interpolation-filters="sRGB">
<feFlood flood-opacity="0" result="BackgroundImageFix"/>
<feColorMatrix in="SourceAlpha" type="matrix" values="0 0 0 0 0 0 0 0 0 0 0 0 0 0 0 0 0 0 127 0" result="hardAlpha"/>
<feOffset dx="1" dy="5"/>
<feGaussianBlur stdDeviation="2.5"/>
<feComposite in2="hardAlpha" operator="out"/>
<feColorMatrix type="matrix" values="0 0 0 0 0.368627 0 0 0 0 0.545098 0 0 0 0 0.494118 0 0 0 0.2 0"/>
<feBlend mode="normal" in2="BackgroundImageFix" result="effect1_dropShadow_1_6"/>
<feBlend mode="normal" in="SourceGraphic" in2="effect1_dropShadow_1_6" result="shape"/>
</filter>
<clipPath id="clip0_1_6">
<rect width="48" height="48" fill="white" transform="translate(16 16)"/>
</clipPath>
</defs>
</svg>
