<svg width="80" height="80" viewBox="0 0 80 80" fill="none" xmlns="http://www.w3.org/2000/svg">
<rect width="80" height="80" rx="40" fill="#F7FBFA"/>
<g clip-path="url(#clip0_1_23)">
<path d="M29.5 28C30.3284 28 31 27.3284 31 26.5C31 25.6716 30.3284 25 29.5 25C28.6716 25 28 25.6716 28 26.5C28 27.3284 28.6716 28 29.5 28Z" fill="#5E8B7E"/>
<g filter="url(#filter0_d_1_23)">
<path d="M54.1428 47.8823V42.5619C54.1428 41.8802 53.8719 41.2265 53.3897 40.7445C52.9075 40.2624 52.2534 39.9917 51.5714 39.9917H41.2857V34.8512H52.8571C53.5391 34.8512 54.1932 34.5804 54.6754 34.0984C55.1576 33.6164 55.4286 32.9626 55.4286 32.2809V24.5702C55.4286 23.8886 55.1576 23.2348 54.6754 22.7528C54.1932 22.2708 53.5391 22 52.8571 22H27.1429C26.4609 22 25.8068 22.2708 25.3246 22.7528C24.8424 23.2348 24.5714 23.8886 24.5714 24.5702V32.2809C24.5714 32.9626 24.8424 33.6164 25.3246 34.0984C25.8068 34.5804 26.4609 34.8512 27.1429 34.8512H38.7143V39.9917H28.4286C27.7466 39.9917 27.0925 40.2624 26.6103 40.7445C26.1281 41.2265 25.8572 41.8802 25.8572 42.5619V47.8823C24.6452 48.1951 23.5889 48.9389 22.8864 49.9745C22.1839 51.01 21.8833 52.2661 22.041 53.5072C22.1987 54.7484 22.8039 55.8895 23.7431 56.7166C24.6824 57.5437 25.8911 58 27.1429 58C28.3946 58 29.6034 57.5437 30.5426 56.7166C31.4818 55.8895 32.087 54.7484 32.2447 53.5072C32.4025 52.2661 32.1019 51.01 31.3994 49.9745C30.6968 48.9389 29.6406 48.1951 28.4286 47.8823V42.5619H38.7143V47.7024H34.8571V57.9833H45.1429V47.7024H41.2857V42.5619H51.5714V47.8823C50.3594 48.1951 49.3032 48.9389 48.6006 49.9745C47.8981 51.01 47.5975 52.2661 47.7553 53.5072C47.913 54.7484 48.5182 55.8895 49.4574 56.7166C50.3966 57.5437 51.6054 58 52.8571 58C54.1089 58 55.3176 57.5437 56.2569 56.7166C57.1961 55.8895 57.8013 54.7484 57.959 53.5072C58.1167 52.2661 57.8162 51.01 57.1136 49.9745C56.4111 48.9389 55.3548 48.1951 54.1428 47.8823ZM29.7143 52.8428C29.7143 53.3512 29.5635 53.8481 29.2809 54.2708C28.9984 54.6935 28.5968 55.0229 28.1269 55.2174C27.657 55.412 27.14 55.4629 26.6412 55.3637C26.1424 55.2645 25.6842 55.0197 25.3246 54.6603C24.965 54.3008 24.7201 53.8428 24.6208 53.3443C24.5216 52.8457 24.5726 52.3289 24.7672 51.8593C24.9618 51.3896 25.2914 50.9882 25.7143 50.7058C26.1371 50.4233 26.6343 50.2726 27.1429 50.2726C27.8249 50.2726 28.4789 50.5434 28.9611 51.0254C29.4434 51.5074 29.7143 52.1612 29.7143 52.8428ZM42.5714 50.2726V55.4131H37.4286V50.2726H42.5714ZM27.1429 32.2809V24.5702H52.8571V32.2809H27.1429ZM52.8571 55.4131C52.3486 55.4131 51.8514 55.2623 51.4285 54.9799C51.0057 54.6975 50.6761 54.2961 50.4814 53.8264C50.2868 53.3568 50.2359 52.84 50.3351 52.3414C50.4343 51.8428 50.6792 51.3849 51.0389 51.0254C51.3985 50.666 51.8567 50.4212 52.3555 50.322C52.8543 50.2228 53.3713 50.2737 53.8412 50.4683C54.311 50.6628 54.7126 50.9922 54.9952 51.4149C55.2777 51.8376 55.4286 52.3345 55.4286 52.8428C55.4286 53.5245 55.1576 54.1783 54.6754 54.6603C54.1932 55.1423 53.5391 55.4131 52.8571 55.4131Z" fill="#5E8B7E"/>
</g>
</g>
<defs>
<filter id="filter0_d_1_23" x="18" y="22" width="46" height="46" filterUnits="userSpaceOnUse" color-interpolation-filters="sRGB">
<feFlood flood-opacity="0" result="BackgroundImageFix"/>
<feColorMatrix in="SourceAlpha" type="matrix" values="0 0 0 0 0 0 0 0 0 0 0 0 0 0 0 0 0 0 127 0" result="hardAlpha"/>
<feOffset dx="1" dy="5"/>
<feGaussianBlur stdDeviation="2.5"/>
<feComposite in2="hardAlpha" operator="out"/>
<feColorMatrix type="matrix" values="0 0 0 0 0.368627 0 0 0 0 0.545098 0 0 0 0 0.494118 0 0 0 0.2 0"/>
<feBlend mode="normal" in2="BackgroundImageFix" result="effect1_dropShadow_1_23"/>
<feBlend mode="normal" in="SourceGraphic" in2="effect1_dropShadow_1_23" result="shape"/>
</filter>
<clipPath id="clip0_1_23">
<rect width="48" height="51" fill="white" transform="translate(16 16)"/>
</clipPath>
</defs>
</svg>
