<svg width="16" height="18" viewBox="0 0 16 18" fill="none" xmlns="http://www.w3.org/2000/svg">
<g clip-path="url(#clip0_1_52)">
<path d="M8.00344 4.95683C5.73201 4.95683 3.89987 6.76035 3.89987 8.99628C3.89987 11.2322 5.73201 13.0357 8.00344 13.0357C10.2749 13.0357 12.107 11.2322 12.107 8.99628C12.107 6.76035 10.2749 4.95683 8.00344 4.95683ZM8.00344 11.6225C6.53558 11.6225 5.33558 10.4447 5.33558 8.99628C5.33558 7.54785 6.53201 6.37011 8.00344 6.37011C9.47486 6.37011 10.6713 7.54785 10.6713 8.99628C10.6713 10.4447 9.47129 11.6225 8.00344 11.6225ZM13.232 4.7916C13.232 5.31543 12.8034 5.73379 12.2749 5.73379C11.7427 5.73379 11.3177 5.31191 11.3177 4.7916C11.3177 4.27129 11.7463 3.84941 12.2749 3.84941C12.8034 3.84941 13.232 4.27129 13.232 4.7916ZM15.9499 5.74785C15.8891 4.48574 15.5963 3.36777 14.657 2.44668C13.7213 1.52559 12.5856 1.2373 11.3034 1.17402C9.98201 1.1002 6.0213 1.1002 4.69987 1.17402C3.4213 1.23379 2.28558 1.52207 1.3463 2.44316C0.407014 3.36426 0.117728 4.48222 0.0534423 5.74433C-0.0215576 7.04511 -0.0215576 10.9439 0.0534423 12.2447C0.114157 13.5068 0.407014 14.6248 1.3463 15.5459C2.28558 16.467 3.41773 16.7553 4.69987 16.8185C6.0213 16.8924 9.98201 16.8924 11.3034 16.8185C12.5856 16.7588 13.7213 16.4705 14.657 15.5459C15.5927 14.6248 15.8856 13.5068 15.9499 12.2447C16.0249 10.9439 16.0249 7.04863 15.9499 5.74785ZM14.2427 13.6404C13.9641 14.3295 13.4249 14.8603 12.7213 15.1381C11.6677 15.5494 9.16772 15.4545 8.00344 15.4545C6.83915 15.4545 4.33558 15.5459 3.28558 15.1381C2.58558 14.8639 2.0463 14.333 1.76416 13.6404C1.3463 12.6033 1.44273 10.1424 1.44273 8.99628C1.44273 7.85019 1.34987 5.38574 1.76416 4.35215C2.04273 3.66308 2.58201 3.13223 3.28558 2.85449C4.33915 2.44316 6.83915 2.53809 8.00344 2.53809C9.16772 2.53809 11.6713 2.44668 12.7213 2.85449C13.4213 3.12871 13.9606 3.65957 14.2427 4.35215C14.6606 5.38926 14.5641 7.85019 14.5641 8.99628C14.5641 10.1424 14.6606 12.6068 14.2427 13.6404Z" fill="white"/>
</g>
<defs>
<clipPath id="clip0_1_52">
<rect width="16" height="18" fill="white"/>
</clipPath>
</defs>
</svg>
