<svg width="31" height="31" viewBox="0 0 31 31" fill="none" xmlns="http://www.w3.org/2000/svg">
<g clip-path="url(#clip0_1_167)">
<path fill-rule="evenodd" clip-rule="evenodd" d="M15.3283 5.99335C14.8013 5.99108 14.591 6.30921 14.209 6.45336C13.0717 7.1515 11.8877 7.72133 10.7175 8.4474C9.88203 8.96553 9.03495 9.43385 8.11802 9.96179C7.8816 10.098 7.3785 10.3007 7.37813 10.5754C7.37776 10.7482 7.65676 10.9022 7.77627 10.9781C8.89825 11.6898 10.0819 12.3743 11.2109 13.0102C12.4188 13.691 13.4769 14.317 14.702 15.0042C14.9093 15.1205 15.1378 15.2692 15.3474 15.1959C15.7014 15.0722 15.5562 14.094 15.5752 13.6812C15.6107 12.9219 15.4026 12.0102 15.8785 11.7637C16.2101 11.5924 17.0415 11.652 17.6051 11.6679C19.3389 11.7162 21.1612 11.6486 22.9185 11.6486C24.7508 11.6486 26.4928 11.6294 28.3072 11.6294C28.5847 11.6294 28.8798 11.6271 29.161 11.6486C29.452 11.6709 29.7392 11.6419 29.9581 11.706C30.4858 11.8611 30.6546 12.2973 30.7742 12.8755C31.135 14.6238 31.0352 16.8488 30.6793 18.5119C30.2371 20.5795 29.5342 22.1668 28.6113 23.631C28.147 24.3676 27.6025 25.0231 27.0553 25.6631C26.3699 26.4643 25.5904 27.1741 24.7213 27.8104C24.5499 27.9357 24.4128 28.1006 24.2466 28.2323C23.9456 28.4715 23.4985 28.7395 23.1463 28.9225C22.3623 29.3297 21.5616 29.7353 20.7175 30.0535C19.0031 30.7003 16.8462 31.1086 14.5694 30.9739C13.4739 30.9093 12.4125 30.7595 11.4769 30.4946C10.0247 30.0837 8.82393 29.5999 7.70083 28.9032C5.86959 27.7677 4.30577 26.382 2.97613 24.6665C2.72738 24.345 2.51188 23.9699 2.25491 23.5929C2.017 23.2442 1.73277 22.7989 1.62856 22.443C1.53594 22.1279 1.56694 21.7135 1.79925 21.5611C2.02447 21.4128 2.84578 21.4781 3.37427 21.4652C4.93249 21.4275 6.57736 21.446 8.23194 21.4464C9.96121 21.4464 11.4231 21.4267 13.1273 21.4271C13.6771 21.4271 14.2508 21.3799 14.7591 21.4079C15.6865 21.4588 15.4572 22.4521 15.4803 23.4208C15.4871 23.711 15.4788 24.0027 15.4803 24.2642C15.4815 24.5012 15.431 24.7755 15.6891 24.9352C16.1149 24.9755 16.4615 24.6812 16.7894 24.4944C17.1274 24.3016 17.4744 24.1159 17.7949 23.9193C18.1165 23.7223 18.4474 23.4985 18.782 23.3249C19.1253 23.1468 19.433 22.9264 19.7688 22.7306C20.7769 22.1415 21.7255 21.5713 22.7855 21.0048C23.0522 20.8626 23.6557 20.621 23.6587 20.3146C23.6613 20.0018 23.0286 19.7388 22.7855 19.6052C21.7816 19.0542 20.7899 18.4568 19.8065 17.8798C19.4707 17.6828 19.1503 17.4715 18.8197 17.2855C18.1516 16.9088 17.5181 16.5107 16.8462 16.116C16.5164 15.922 16.1608 15.7129 15.7646 15.6363C15.5061 15.7277 15.502 16.0322 15.499 16.3073C15.496 16.5832 15.4736 16.9066 15.48 17.1892C15.4942 17.8221 15.5894 18.8191 15.2331 19.0682C14.9552 19.2625 14.0047 19.164 13.4683 19.164C9.79613 19.164 6.25653 19.2025 2.57686 19.2025C1.49933 19.2025 0.616021 19.1776 0.299672 18.4164C0.0875274 17.9059 0.0740817 17.1953 0.0341178 16.5568C-0.008834 15.8733 -0.00734002 15.1827 0.0150696 14.5246C0.0591419 13.2249 0.354576 11.9773 0.679142 10.9584C1.02425 9.87349 1.43099 8.87534 1.93109 7.98663C2.44278 7.07716 3.03178 6.28355 3.6768 5.51333C4.95826 3.98308 6.54897 2.68417 8.36378 1.7747C8.84111 1.53545 9.30573 1.28336 9.78679 1.08449C10.291 0.875801 10.8154 0.728626 11.3618 0.566733C12.9596 0.0935087 15.1173 -0.140839 17.1682 0.0874707C21.7319 0.596546 24.8229 2.69285 27.2446 5.39898C27.9061 6.19599 28.513 7.00621 29.0662 7.987C29.2428 8.30022 29.5846 8.98742 29.1801 9.29082C28.9496 9.46404 28.023 9.43498 27.5673 9.44442C26.3822 9.46781 25.2905 9.44592 24.1708 9.44442C23.8989 9.44404 23.6195 9.48706 23.336 9.48253C21.5149 9.4546 19.3561 9.46668 17.492 9.46366C16.7689 9.46253 15.8538 9.57763 15.6323 9.13761C15.4538 8.78288 15.589 7.98625 15.5756 7.46963C15.5603 6.91715 15.7156 6.31524 15.3283 5.99335Z" fill="white"/>
</g>
<defs>
<clipPath id="clip0_1_167">
<rect width="31" height="31" fill="white"/>
</clipPath>
</defs>
</svg>
