<svg width="122" height="45" viewBox="0 0 122 45" fill="none" xmlns="http://www.w3.org/2000/svg">
<path d="M35.4875 25.6147C35.4875 26.0216 35.462 26.4455 35.4112 26.8864H25.5685C25.6364 27.768 25.9161 28.4463 26.4078 28.921C26.9165 29.3788 27.5354 29.6077 28.2645 29.6077C29.3496 29.6077 30.1041 29.1499 30.528 28.2343H35.1569C34.9195 29.1669 34.4871 30.0062 33.8598 30.7522C33.2494 31.4982 32.4779 32.0832 31.5453 32.5071C30.6128 32.931 29.57 33.1429 28.4171 33.1429C27.0267 33.1429 25.789 32.8462 24.7038 32.2528C23.6187 31.6593 22.7709 30.8115 22.1605 29.7094C21.5501 28.6073 21.2449 27.3187 21.2449 25.8436C21.2449 24.3685 21.5416 23.0799 22.1351 21.9778C22.7455 20.8757 23.5932 20.0279 24.6784 19.4344C25.7635 18.841 27.0098 18.5443 28.4171 18.5443C29.7905 18.5443 31.0112 18.8325 32.0794 19.409C33.1476 19.9855 33.9784 20.8078 34.5719 21.876C35.1823 22.9442 35.4875 24.1904 35.4875 25.6147ZM31.0367 24.4702C31.0367 23.7242 30.7823 23.1307 30.2737 22.6899C29.765 22.249 29.1292 22.0286 28.3662 22.0286C27.6371 22.0286 27.0182 22.2406 26.5096 22.6645C26.0179 23.0883 25.7127 23.6903 25.594 24.4702H31.0367ZM36.9171 25.8182C36.9171 24.36 37.1884 23.0799 37.731 21.9778C38.2905 20.8757 39.045 20.0279 39.9945 19.4344C40.944 18.841 42.0037 18.5443 43.1737 18.5443C44.1062 18.5443 44.954 18.7393 45.717 19.1292C46.4969 19.5192 47.1073 20.0448 47.5482 20.7061V14.1189H51.8972V32.9395H47.5482V30.9048C47.1412 31.583 46.5563 32.1256 45.7933 32.5325C45.0472 32.9395 44.174 33.1429 43.1737 33.1429C42.0037 33.1429 40.944 32.8462 39.9945 32.2528C39.045 31.6424 38.2905 30.7861 37.731 29.684C37.1884 28.5649 36.9171 27.2763 36.9171 25.8182ZM47.5482 25.8436C47.5482 24.7584 47.243 23.9022 46.6326 23.2748C46.0391 22.6475 45.31 22.3338 44.4453 22.3338C43.5806 22.3338 42.843 22.6475 42.2326 23.2748C41.6392 23.8852 41.3425 24.733 41.3425 25.8182C41.3425 26.9033 41.6392 27.768 42.2326 28.4123C42.843 29.0397 43.5806 29.3534 44.4453 29.3534C45.31 29.3534 46.0391 29.0397 46.6326 28.4123C47.243 27.785 47.5482 26.9287 47.5482 25.8436ZM69.0573 18.7477V32.9395H64.7082V31.0065C64.2674 31.6339 63.6654 32.1425 62.9025 32.5325C62.1564 32.9055 61.3256 33.0921 60.41 33.0921C59.3249 33.0921 58.3669 32.8547 57.5361 32.3799C56.7052 31.8882 56.0609 31.1846 55.6031 30.269C55.1453 29.3534 54.9164 28.2767 54.9164 27.039V18.7477H59.2401V26.454C59.2401 27.4035 59.4859 28.1411 59.9776 28.6667C60.4693 29.1923 61.1306 29.4551 61.9614 29.4551C62.8092 29.4551 63.4789 29.1923 63.9706 28.6667C64.4624 28.1411 64.7082 27.4035 64.7082 26.454V18.7477H69.0573ZM74.3684 17.2726C73.6054 17.2726 72.9781 17.0522 72.4864 16.6114C72.0116 16.1536 71.7743 15.594 71.7743 14.9328C71.7743 14.2546 72.0116 13.695 72.4864 13.2542C72.9781 12.7964 73.6054 12.5675 74.3684 12.5675C75.1145 12.5675 75.7249 12.7964 76.1996 13.2542C76.6913 13.695 76.9372 14.2546 76.9372 14.9328C76.9372 15.594 76.6913 16.1536 76.1996 16.6114C75.7249 17.0522 75.1145 17.2726 74.3684 17.2726ZM76.5303 18.7477V32.9395H72.1812V18.7477H76.5303ZM87.5917 29.2516V32.9395H85.379C83.8022 32.9395 82.5729 32.558 81.6912 31.795C80.8095 31.015 80.3687 29.7518 80.3687 28.0054V22.3593H78.6392V18.7477H80.3687V15.2888H84.7178V18.7477H87.5663V22.3593H84.7178V28.0563C84.7178 28.4802 84.8195 28.7854 85.0229 28.9719C85.2264 29.1584 85.5655 29.2516 86.0403 29.2516H87.5917ZM103.392 25.6147C103.392 26.0216 103.367 26.4455 103.316 26.8864H93.4731C93.5409 27.768 93.8207 28.4463 94.3124 28.921C94.8211 29.3788 95.44 29.6077 96.169 29.6077C97.2542 29.6077 98.0087 29.1499 98.4326 28.2343H103.061C102.824 29.1669 102.392 30.0062 101.764 30.7522C101.154 31.4982 100.382 32.0832 99.4499 32.5071C98.5174 32.931 97.4746 33.1429 96.3216 33.1429C94.9313 33.1429 93.6935 32.8462 92.6084 32.2528C91.5232 31.6593 90.6755 30.8115 90.0651 29.7094C89.4547 28.6073 89.1495 27.3187 89.1495 25.8436C89.1495 24.3685 89.4462 23.0799 90.0396 21.9778C90.65 20.8757 91.4978 20.0279 92.583 19.4344C93.6681 18.841 94.9143 18.5443 96.3216 18.5443C97.695 18.5443 98.9158 18.8325 99.984 19.409C101.052 19.9855 101.883 20.8078 102.476 21.876C103.087 22.9442 103.392 24.1904 103.392 25.6147ZM98.9413 24.4702C98.9413 23.7242 98.6869 23.1307 98.1783 22.6899C97.6696 22.249 97.0338 22.0286 96.2708 22.0286C95.5417 22.0286 94.9228 22.2406 94.4142 22.6645C93.9224 23.0883 93.6172 23.6903 93.4986 24.4702H98.9413ZM114.334 18.5951C115.995 18.5951 117.318 19.1377 118.301 20.2229C119.302 21.2911 119.802 22.7662 119.802 24.6482V32.9395H115.478V25.2332C115.478 24.2837 115.232 23.5461 114.741 23.0205C114.249 22.4949 113.588 22.2321 112.757 22.2321C111.926 22.2321 111.265 22.4949 110.773 23.0205C110.281 23.5461 110.035 24.2837 110.035 25.2332V32.9395H105.686V18.7477H110.035V20.6298C110.476 20.0024 111.07 19.5107 111.816 19.1547C112.562 18.7817 113.401 18.5951 114.334 18.5951Z" fill="#33B8C8"/>
<path d="M10.6002 35.3747C9.12231 35.3747 7.74852 35.1041 6.47882 34.5629C5.22993 34.0217 4.14755 33.2724 3.2317 32.3149C2.33666 31.3366 1.68099 30.2022 1.26469 28.9117L4.79281 27.3818C5.35482 28.7139 6.16659 29.7651 7.22815 30.5352C8.28971 31.2845 9.48657 31.6592 10.8187 31.6592C11.5681 31.6592 12.2133 31.5447 12.7545 31.3158C13.3165 31.066 13.7432 30.733 14.0346 30.3167C14.3468 29.9004 14.5029 29.4008 14.5029 28.818C14.5029 28.1311 14.2948 27.5691 13.8785 27.132C13.483 26.6741 12.8794 26.3202 12.0676 26.0704L7.60282 24.6342C5.79193 24.0722 4.42855 23.2292 3.5127 22.1052C2.59685 20.9812 2.13892 19.6594 2.13892 18.14C2.13892 16.8078 2.46155 15.6318 3.10681 14.6118C3.77289 13.5919 4.68874 12.8009 5.85437 12.2389C7.04082 11.6561 8.39379 11.3647 9.91327 11.3647C11.3079 11.3647 12.588 11.6145 13.7536 12.1141C14.9192 12.5928 15.9184 13.2693 16.751 14.1435C17.6044 14.9969 18.2392 16.0064 18.6555 17.1721L15.1586 18.7332C14.7007 17.5676 14.0138 16.6725 13.0979 16.0481C12.1821 15.4028 11.1205 15.0802 9.91327 15.0802C9.20557 15.0802 8.58112 15.2051 8.03993 15.4548C7.49875 15.6838 7.07204 16.0168 6.75982 16.454C6.46841 16.8703 6.32271 17.3698 6.32271 17.9526C6.32271 18.5979 6.53086 19.1703 6.94715 19.6699C7.36345 20.1486 7.9983 20.5233 8.85171 20.7939L13.1292 22.1364C14.9817 22.74 16.3659 23.5726 17.2817 24.6342C18.2184 25.6958 18.6867 27.0071 18.6867 28.5682C18.6867 29.9004 18.3433 31.0764 17.6564 32.0963C16.9695 33.1163 16.0224 33.9176 14.8152 34.5004C13.6079 35.0833 12.2029 35.3747 10.6002 35.3747ZM9.10149 38.1222V8.61716H11.7554V38.1222H9.10149Z" fill="#FFC741"/>
</svg>
